<svg width="20" height="19" viewBox="0 0 20 19" fill="none" xmlns="http://www.w3.org/2000/svg">
<path d="M15.8468 4.04641C15.3641 2.89392 14.5515 1.90979 13.5113 1.21765C12.471 0.525515 11.2494 0.15625 9.99988 0.15625C8.75039 0.15625 7.52877 0.525515 6.48849 1.21765C5.44822 1.90979 4.63569 2.89392 4.153 4.04641C3.11058 4.52287 2.227 5.2888 1.60743 6.25305C0.987861 7.21731 0.658387 8.33927 0.658223 9.48542C0.649882 12.6716 3.32727 15.424 6.50843 15.5075C7.48691 15.5311 8.45637 15.3155 9.33262 14.8794V18.1765C9.33262 18.3535 9.40292 18.5232 9.52805 18.6483C9.65319 18.7735 9.82291 18.8438 9.99988 18.8438C10.1768 18.8438 10.3466 18.7735 10.4717 18.6483C10.5968 18.5232 10.6671 18.3535 10.6671 18.1765V14.8794C11.4967 15.2913 12.41 15.5062 13.3362 15.5075H13.488C16.6725 15.424 19.3507 12.6716 19.3415 9.48542C19.3414 8.33927 19.0119 7.21731 18.3923 6.25305C17.7727 5.2888 16.8892 4.52287 15.8468 4.04641ZM13.4571 14.1729C12.4621 14.1988 11.4847 13.9067 10.6671 13.3389V9.91914L14.302 8.10252C14.3805 8.06331 14.4504 8.00903 14.5078 7.94279C14.5653 7.87655 14.6091 7.79965 14.6369 7.71647C14.6646 7.63328 14.6757 7.54545 14.6695 7.45799C14.6632 7.37053 14.6399 7.28515 14.6006 7.20672C14.5614 7.1283 14.5072 7.05836 14.4409 7.00092C14.3747 6.94347 14.2978 6.89963 14.2146 6.8719C14.1314 6.84417 14.0436 6.8331 13.9561 6.83931C13.8686 6.84553 13.7833 6.86891 13.7048 6.90812L10.6671 8.42281V6.1658C10.6671 5.98883 10.5968 5.81911 10.4717 5.69397C10.3466 5.56884 10.1768 5.49854 9.99988 5.49854C9.82291 5.49854 9.65319 5.56884 9.52805 5.69397C9.40292 5.81911 9.33262 5.98883 9.33262 6.1658V10.4246L6.29491 8.9049C6.13652 8.82571 5.95316 8.81268 5.78517 8.86868C5.61717 8.92467 5.4783 9.04512 5.39911 9.2035C5.31992 9.36189 5.30689 9.54525 5.36289 9.71324C5.41888 9.88124 5.53932 10.0201 5.69771 10.0993L9.33262 11.9159V13.3338C8.51526 13.9021 7.53775 14.1943 6.54263 14.1679C4.06959 14.1087 1.98607 11.9643 1.99274 9.48876C1.99211 8.55774 2.27087 7.64796 2.79295 6.87711C3.31503 6.10625 4.05641 5.5098 4.92119 5.16491C5.00794 5.13007 5.0864 5.07739 5.15149 5.01029C5.21658 4.94319 5.26684 4.86316 5.29902 4.77539C5.65099 3.81153 6.29073 2.97915 7.13159 2.39103C7.97244 1.80292 8.97376 1.48749 9.99988 1.48749C11.026 1.48749 12.0273 1.80292 12.8682 2.39103C13.709 2.97915 14.3488 3.81153 14.7007 4.77539C14.7329 4.86316 14.7832 4.94319 14.8483 5.01029C14.9134 5.07739 14.9918 5.13007 15.0786 5.16491C15.9432 5.50999 16.6845 6.10649 17.2065 6.8773C17.7286 7.64811 18.0074 8.5578 18.007 9.48876C18.0137 11.9643 15.9302 14.1087 13.4571 14.1729Z" fill="#203627"/>
</svg>
