<svg width="28" height="22" viewBox="0 0 28 22" fill="none" xmlns="http://www.w3.org/2000/svg">
<path d="M6.47119 21.5793C5.34782 21.5793 4.37939 21.358 3.56592 20.9153C2.75798 20.4726 2.13542 19.8722 1.69824 19.114C1.26107 18.3614 1.04248 17.5175 1.04248 16.5823C1.04248 15.8131 1.19466 15.1047 1.49902 14.4573C1.80892 13.8043 2.24056 13.2454 2.79395 12.7805C3.35286 12.3157 4.00309 11.9726 4.74463 11.7512C4.86084 10.6666 5.15413 9.66496 5.62451 8.74634C6.09489 7.82772 6.70085 7.03084 7.44238 6.35571C8.18392 5.67505 9.02507 5.14657 9.96582 4.77026C10.9066 4.39396 11.9054 4.20581 12.9624 4.20581C14.0636 4.20581 15.0791 4.38843 16.0088 4.75366C16.944 5.1189 17.7769 5.64185 18.5073 6.32251C19.2378 7.00317 19.8438 7.82218 20.3252 8.77954C21.3102 8.77954 22.2178 8.94279 23.0479 9.26929C23.8835 9.59025 24.6084 10.0413 25.2227 10.6223C25.8369 11.1978 26.3128 11.8757 26.6504 12.656C26.9935 13.4307 27.165 14.2719 27.165 15.1794C27.165 16.0815 26.999 16.9198 26.667 17.6946C26.335 18.4693 25.8674 19.1472 25.2642 19.7283C24.6665 20.3093 23.9692 20.7631 23.1724 21.0896C22.3755 21.4161 21.515 21.5793 20.5908 21.5793H6.47119ZM6.48779 19.6121H20.6323C21.2798 19.6121 21.8802 19.4986 22.4336 19.2717C22.987 19.0504 23.4712 18.7405 23.8862 18.342C24.3013 17.9491 24.6222 17.4871 24.8491 16.9558C25.076 16.4246 25.1895 15.849 25.1895 15.2292C25.1895 14.5984 25.0705 14.0146 24.8325 13.4778C24.6001 12.9355 24.257 12.4623 23.8032 12.0583C23.3494 11.6488 22.7988 11.3306 22.1514 11.1038C21.5039 10.8769 20.7679 10.7634 19.9434 10.7634C19.6224 10.7634 19.3761 10.7136 19.2046 10.614C19.033 10.5144 18.8809 10.3346 18.748 10.0745C18.3441 9.26099 17.8543 8.56372 17.2788 7.98267C16.7033 7.39608 16.0531 6.94784 15.3281 6.63794C14.6032 6.32804 13.8146 6.1731 12.9624 6.1731C12.1268 6.1731 11.3465 6.32804 10.6216 6.63794C9.89665 6.94784 9.25195 7.38501 8.6875 7.94946C8.12305 8.51392 7.66374 9.18075 7.30957 9.94995C6.9554 10.7192 6.73682 11.5631 6.65381 12.4817C6.62061 12.7916 6.54313 13.0212 6.42139 13.1707C6.29964 13.3145 6.09489 13.4224 5.80713 13.4944C4.91064 13.7323 4.21891 14.1225 3.73193 14.6648C3.25049 15.2071 3.00977 15.8629 3.00977 16.6321C3.00977 17.2297 3.14811 17.7499 3.4248 18.1926C3.7015 18.6409 4.09993 18.9895 4.62012 19.2385C5.1403 19.4875 5.76286 19.6121 6.48779 19.6121ZM2.37891 10.7634C1.94727 10.7634 1.58203 10.614 1.2832 10.3152C0.984375 10.0164 0.834961 9.65112 0.834961 9.21948C0.834961 8.79891 0.984375 8.44198 1.2832 8.14868C1.58203 7.84985 1.94727 7.70044 2.37891 7.70044C2.80501 7.70044 3.16471 7.84985 3.45801 8.14868C3.7513 8.44198 3.89795 8.79891 3.89795 9.21948C3.89795 9.65112 3.7513 10.0164 3.45801 10.3152C3.16471 10.614 2.80501 10.7634 2.37891 10.7634ZM18.5239 3.64136C18.131 3.64136 17.7907 3.50024 17.5029 3.21802C17.2207 2.93579 17.0796 2.59546 17.0796 2.19702C17.0796 1.79858 17.2207 1.45825 17.5029 1.17603C17.7907 0.893799 18.131 0.752686 18.5239 0.752686C18.9168 0.752686 19.2544 0.893799 19.5366 1.17603C19.8244 1.45825 19.9683 1.79858 19.9683 2.19702C19.9683 2.59546 19.8244 2.93579 19.5366 3.21802C19.2544 3.50024 18.9168 3.64136 18.5239 3.64136ZM23.1475 7.44312C22.749 7.44312 22.3838 7.34627 22.0518 7.15259C21.7253 6.9589 21.4624 6.69881 21.2632 6.37231C21.0695 6.04582 20.9727 5.68335 20.9727 5.28491C20.9727 4.88094 21.0695 4.51571 21.2632 4.18921C21.4624 3.86271 21.7253 3.60539 22.0518 3.41724C22.3838 3.22355 22.749 3.12671 23.1475 3.12671C23.5459 3.12671 23.9084 3.22355 24.2349 3.41724C24.5614 3.60539 24.8187 3.86271 25.0068 4.18921C25.2005 4.51571 25.2974 4.88094 25.2974 5.28491C25.2974 5.68335 25.2005 6.04582 25.0068 6.37231C24.8187 6.69881 24.5614 6.9589 24.2349 7.15259C23.9084 7.34627 23.5459 7.44312 23.1475 7.44312ZM10.5303 17.6946C9.91048 17.6946 9.4069 17.5313 9.01953 17.2048C8.6377 16.8839 8.35824 16.4605 8.18115 15.9348C8.0096 15.4036 7.92383 14.828 7.92383 14.2083C7.92383 13.5829 8.01514 13.0102 8.19775 12.49C8.38037 11.9643 8.6626 11.5465 9.04443 11.2366C9.42627 10.9211 9.91325 10.7634 10.5054 10.7634C10.9757 10.7634 11.3825 10.863 11.7256 11.0623C12.0687 11.2615 12.3343 11.5271 12.5225 11.8591C12.7106 12.1856 12.813 12.5343 12.8296 12.905C12.8351 13.1042 12.7853 13.2647 12.6802 13.3865C12.575 13.5027 12.4367 13.5608 12.2651 13.5608C11.9497 13.5608 11.7505 13.3754 11.6675 13.0046C11.6011 12.7169 11.4849 12.454 11.3188 12.2161C11.1528 11.9781 10.8872 11.8591 10.522 11.8591C10.1789 11.8591 9.90495 11.9726 9.7002 12.1995C9.50098 12.4264 9.35433 12.7196 9.26025 13.0793C9.17171 13.439 9.12744 13.8153 9.12744 14.2083C9.12744 14.6288 9.17171 15.0217 9.26025 15.387C9.3488 15.7467 9.49544 16.04 9.7002 16.2668C9.90495 16.4882 10.1816 16.5989 10.5303 16.5989C10.8955 16.5989 11.1667 16.4827 11.3438 16.2502C11.5208 16.0123 11.6398 15.7494 11.7007 15.4617C11.745 15.2791 11.8114 15.1407 11.8999 15.0466C11.994 14.947 12.124 14.8972 12.29 14.8972C12.4616 14.8972 12.5999 14.9581 12.7051 15.0798C12.8102 15.2016 12.8628 15.3593 12.8628 15.553C12.8462 15.9237 12.741 16.2724 12.5474 16.5989C12.3592 16.9254 12.0936 17.1882 11.7505 17.3875C11.4129 17.5922 11.0062 17.6946 10.5303 17.6946ZM15.8096 17.6946C15.0127 17.6946 14.3791 17.3819 13.9087 16.7566C13.4438 16.1313 13.2114 15.2874 13.2114 14.2249C13.2114 13.1679 13.4438 12.3267 13.9087 11.7014C14.3791 11.0761 15.0099 10.7634 15.8013 10.7634C16.5926 10.7634 17.2207 11.0761 17.6855 11.7014C18.1504 12.3267 18.3828 13.1679 18.3828 14.2249C18.3828 15.2874 18.1504 16.1313 17.6855 16.7566C17.2207 17.3819 16.5954 17.6946 15.8096 17.6946ZM15.8096 16.5989C16.2301 16.5989 16.5622 16.3914 16.8057 15.9763C17.0492 15.5557 17.1709 14.9719 17.1709 14.2249C17.1709 13.4778 17.0464 12.8967 16.7974 12.4817C16.5539 12.0667 16.2218 11.8591 15.8013 11.8591C15.3752 11.8591 15.0376 12.0667 14.7886 12.4817C14.5396 12.8967 14.415 13.4778 14.415 14.2249C14.415 14.9719 14.5396 15.5557 14.7886 15.9763C15.0431 16.3914 15.3835 16.5989 15.8096 16.5989ZM19.1299 18.0515C19.0192 18.0515 18.9251 18.01 18.8477 17.927C18.7757 17.8495 18.7397 17.7555 18.7397 17.6448C18.7397 17.4954 18.7923 17.3625 18.8975 17.2463L19.7358 16.3914C19.8521 16.2641 19.9572 16.1368 20.0513 16.0095C20.1509 15.8767 20.2007 15.7522 20.2007 15.636C20.2007 15.564 20.1758 15.5059 20.126 15.4617C20.0817 15.4119 20.0208 15.387 19.9434 15.387C19.7884 15.387 19.6777 15.4866 19.6113 15.6858C19.5837 15.7688 19.5339 15.8518 19.4619 15.9348C19.3955 16.0123 19.2959 16.051 19.1631 16.051C19.0469 16.051 18.9445 16.0095 18.856 15.9265C18.7674 15.838 18.7231 15.7245 18.7231 15.5862C18.7231 15.3427 18.8311 15.1075 19.0469 14.8806C19.2682 14.6537 19.5671 14.5403 19.9434 14.5403C20.2865 14.5403 20.5687 14.6427 20.79 14.8474C21.0169 15.0466 21.1304 15.304 21.1304 15.6194C21.1304 15.8407 21.0612 16.0538 20.9229 16.2585C20.7845 16.4633 20.613 16.6708 20.4082 16.8811L20.0928 17.2131H20.873C20.9782 17.2131 21.0723 17.2546 21.1553 17.3376C21.2438 17.4262 21.2881 17.523 21.2881 17.6282C21.2881 17.7444 21.2466 17.844 21.1636 17.927C21.0806 18.01 20.9837 18.0515 20.873 18.0515H19.1299Z" fill="#52AE5E"/>
</svg>
