<svg width="2048" height="726" viewBox="0 0 2048 726" fill="none" xmlns="http://www.w3.org/2000/svg">
<path d="M470.07 503.305H50.0976C-56.6369 503.305 -139.487 422.567 -139.487 319.72C-139.487 215.383 -53.652 137.626 60.2987 138.123C102.595 52.6656 179.722 0 277.002 0C401.403 0 504.654 98.3755 515.352 224.078C579.045 241.716 624.575 294.878 624.575 363.195C624.575 444.429 564.117 503.305 470.07 503.305Z" fill="#0D7CFD" fill-opacity="0.15"/>
<path d="M2141.88 716.857H1721.9C1615.17 716.857 1532.32 636.12 1532.32 533.273C1532.32 428.935 1618.15 351.179 1732.1 351.675C1774.4 266.218 1851.53 213.552 1948.81 213.552C2073.21 213.552 2176.46 311.928 2187.16 437.63C2250.85 455.268 2296.38 508.431 2296.38 576.747C2296.38 657.982 2235.92 716.857 2141.88 716.857Z" fill="#0D7CFD" fill-opacity="0.15"/>
</svg>
