<svg width="1477" height="1759" viewBox="0 0 1477 1759" fill="none" xmlns="http://www.w3.org/2000/svg">
<path d="M1046.89 4.41919C1058.56 -2.96963 1074 0.495349 1081.39 12.1584C1120.87 74.4688 1127.25 161.903 1116.57 255.284C1105.78 349.615 1076.99 454.793 1040.86 556.545C976.053 739.072 886.11 914.643 828.765 1002.17C835.019 1004.25 840.295 1008.02 843.829 1013.43C852.012 1025.95 848.415 1043.5 836.264 1057.15C919.697 1221.34 1091.53 1490.6 1464.31 1712.27C1476.17 1719.33 1480.07 1734.67 1473.02 1746.54C1465.96 1758.41 1450.62 1762.3 1438.75 1755.25C1052.76 1525.71 875.497 1245.68 789.913 1076.29C780.43 1075.19 772.255 1070.84 767.387 1063.39C765.13 1059.94 763.77 1056.1 763.237 1052.07C761.32 1052.01 759.407 1051.75 757.511 1051.28C742.712 1047.61 732.883 1032.27 730.892 1012.86C567.991 948.209 396.549 840.923 260.874 710.824C113.719 569.718 5.12155 398.288 0.450195 222.179C0.0841631 208.377 10.9761 196.891 24.7783 196.525C38.5806 196.159 50.0665 207.052 50.4326 220.854C54.5973 377.856 152.434 537.57 295.479 674.736C424.499 798.451 587.44 900.986 742.241 963.546C753.058 945.936 769.66 935.967 785.112 939.793C791.792 941.447 797.457 945.483 801.849 951.196C856.362 862.122 935.259 704.535 993.747 539.816C1029.21 439.952 1056.7 338.728 1066.89 249.603C1077.2 159.528 1069.27 86.4488 1039.16 38.9172C1031.77 27.2538 1035.23 11.8084 1046.89 4.41919Z" fill="#112F15"/>
</svg>
