<svg width="22" height="22" viewBox="0 0 22 22" fill="none" xmlns="http://www.w3.org/2000/svg">
<path d="M10.3193 18.4333C10.0758 18.4333 9.86556 18.3448 9.68848 18.1677C9.51693 17.9962 9.43115 17.7914 9.43115 17.5535V12.6062C8.15837 12.5177 7.06543 12.2548 6.15234 11.8176C5.24479 11.3749 4.48389 10.8271 3.86963 10.1741C3.2609 9.51554 2.77393 8.80721 2.40869 8.04907C2.04346 7.29093 1.76953 6.5411 1.58691 5.79956C1.40983 5.05249 1.29362 4.38013 1.23828 3.78247C1.19954 3.27336 1.4209 3.0188 1.90234 3.0188C2.58854 3.0188 3.26644 3.08521 3.93604 3.21802C4.60563 3.3453 5.25033 3.54451 5.87012 3.81567C6.49544 4.0813 7.08203 4.41886 7.62988 4.82837C8.18327 5.23787 8.68132 5.71655 9.12402 6.2644C9.57227 6.81226 9.94857 7.43205 10.2529 8.12378C10.7897 6.51896 11.5617 5.14103 12.5688 3.98999C13.5815 2.83341 14.7852 1.95353 16.1797 1.35034C17.5798 0.741618 19.1348 0.445557 20.8447 0.462158C21.138 0.462158 21.3649 0.547933 21.5254 0.719482C21.6859 0.885498 21.7661 1.10685 21.7661 1.38354C21.7827 3.0105 21.5448 4.49357 21.0522 5.83276C20.5653 7.16642 19.8597 8.323 18.9355 9.30249C18.0114 10.282 16.8963 11.0567 15.5903 11.6267C14.2843 12.1912 12.8234 12.5204 11.2075 12.6145V17.5535C11.2075 17.7914 11.119 17.9962 10.9419 18.1677C10.7703 18.3448 10.5628 18.4333 10.3193 18.4333ZM9.33984 10.8049C9.19596 10.0689 8.97738 9.40487 8.68408 8.81274C8.39632 8.22062 8.04769 7.70044 7.63818 7.2522C7.23421 6.79842 6.78597 6.41105 6.29346 6.09009C5.80648 5.76912 5.29183 5.51457 4.74951 5.32642C4.21273 5.13273 3.67318 4.99715 3.13086 4.91968C3.23047 5.5118 3.39372 6.08455 3.62061 6.63794C3.85303 7.18579 4.14355 7.69767 4.49219 8.17358C4.84082 8.6495 5.25033 9.07284 5.7207 9.4436C6.19661 9.81437 6.73617 10.1187 7.33936 10.3567C7.94255 10.5891 8.60938 10.7385 9.33984 10.8049ZM11.415 10.8049C12.6491 10.6943 13.7725 10.4148 14.7852 9.96655C15.8034 9.51278 16.686 8.91512 17.4331 8.17358C18.1857 7.42651 18.7751 6.56047 19.2012 5.57544C19.6328 4.58488 19.8735 3.50024 19.9233 2.32153C18.8166 2.39901 17.79 2.65356 16.8438 3.08521C15.903 3.51131 15.0646 4.09513 14.3286 4.83667C13.5981 5.57267 12.9839 6.44425 12.4858 7.45142C11.9933 8.45858 11.6364 9.57642 11.415 10.8049ZM1.22168 21.9446C0.950521 21.9446 0.718099 21.845 0.524414 21.6458C0.330729 21.4521 0.233887 21.2196 0.233887 20.9485C0.233887 20.6773 0.330729 20.4421 0.524414 20.2429C0.718099 20.0492 0.950521 19.9524 1.22168 19.9524C1.49837 19.9524 1.73356 20.0492 1.92725 20.2429C2.12093 20.4421 2.21777 20.6773 2.21777 20.9485C2.21777 21.2196 2.12093 21.4521 1.92725 21.6458C1.73356 21.845 1.49837 21.9446 1.22168 21.9446ZM3.99414 20.0271C3.71745 20.0271 3.48226 19.9303 3.28857 19.7366C3.09489 19.5429 2.99805 19.3105 2.99805 19.0393C2.99805 18.7626 3.09489 18.5247 3.28857 18.3254C3.48226 18.1318 3.71745 18.0349 3.99414 18.0349C4.2653 18.0349 4.49772 18.1318 4.69141 18.3254C4.88509 18.5247 4.98193 18.7626 4.98193 19.0393C4.98193 19.3105 4.88509 19.5429 4.69141 19.7366C4.49772 19.9303 4.2653 20.0271 3.99414 20.0271ZM7.12354 18.9231C6.84684 18.9231 6.60889 18.8235 6.40967 18.6243C6.21598 18.4306 6.11914 18.1982 6.11914 17.927C6.11914 17.6558 6.21598 17.4207 6.40967 17.2214C6.60889 17.0278 6.84684 16.9309 7.12354 16.9309C7.39469 16.9309 7.62712 17.0278 7.8208 17.2214C8.01449 17.4207 8.11133 17.6558 8.11133 17.927C8.11133 18.1982 8.01449 18.4306 7.8208 18.6243C7.62712 18.8235 7.39469 18.9231 7.12354 18.9231ZM13.5151 18.9231C13.2495 18.9231 13.0171 18.8235 12.8179 18.6243C12.6242 18.4306 12.5273 18.1982 12.5273 17.927C12.5273 17.6558 12.6242 17.4207 12.8179 17.2214C13.0171 17.0278 13.2495 16.9309 13.5151 16.9309C13.7918 16.9309 14.027 17.0278 14.2207 17.2214C14.4199 17.4207 14.5195 17.6558 14.5195 17.927C14.5195 18.1982 14.4199 18.4306 14.2207 18.6243C14.027 18.8235 13.7918 18.9231 13.5151 18.9231ZM16.6445 20.0271C16.3734 20.0271 16.141 19.9303 15.9473 19.7366C15.7536 19.5429 15.6567 19.3105 15.6567 19.0393C15.6567 18.7626 15.7536 18.5247 15.9473 18.3254C16.141 18.1318 16.3734 18.0349 16.6445 18.0349C16.9157 18.0349 17.1481 18.1318 17.3418 18.3254C17.541 18.5247 17.6406 18.7626 17.6406 19.0393C17.6406 19.3105 17.541 19.5429 17.3418 19.7366C17.1481 19.9303 16.9157 20.0271 16.6445 20.0271ZM19.417 21.9446C19.1403 21.9446 18.9051 21.845 18.7114 21.6458C18.5177 21.4521 18.4209 21.2196 18.4209 20.9485C18.4209 20.6773 18.5177 20.4421 18.7114 20.2429C18.9051 20.0492 19.1403 19.9524 19.417 19.9524C19.6882 19.9524 19.9206 20.0492 20.1143 20.2429C20.3079 20.4421 20.4048 20.6773 20.4048 20.9485C20.4048 21.2196 20.3079 21.4521 20.1143 21.6458C19.9206 21.845 19.6882 21.9446 19.417 21.9446Z" fill="#E8FE41"/>
</svg>
