<svg width="24" height="23" viewBox="0 0 24 23" fill="none" xmlns="http://www.w3.org/2000/svg">
<path d="M12 14.8806C11.3083 14.8806 10.6802 14.7146 10.1157 14.3826C9.5568 14.045 9.11133 13.5968 8.7793 13.0378C8.44727 12.4789 8.28125 11.8564 8.28125 11.1702C8.28125 10.484 8.44727 9.86141 8.7793 9.30249C9.11133 8.73804 9.5568 8.28979 10.1157 7.95776C10.6802 7.6202 11.3083 7.45142 12 7.45142C12.6807 7.45142 13.3005 7.6202 13.8594 7.95776C14.4238 8.28979 14.8721 8.73804 15.2041 9.30249C15.5417 9.86141 15.7104 10.484 15.7104 11.1702C15.7104 11.8564 15.5417 12.4789 15.2041 13.0378C14.8721 13.5968 14.4238 14.045 13.8594 14.3826C13.3005 14.7146 12.6807 14.8806 12 14.8806ZM12 12.9465C12.321 12.9465 12.6143 12.8663 12.8799 12.7058C13.151 12.5453 13.3669 12.3295 13.5273 12.0583C13.6878 11.7872 13.7681 11.4911 13.7681 11.1702C13.7681 10.8437 13.6878 10.5448 13.5273 10.2737C13.3669 10.0025 13.151 9.78947 12.8799 9.63452C12.6143 9.47404 12.321 9.3938 12 9.3938C11.6735 9.3938 11.3747 9.47404 11.1035 9.63452C10.8379 9.78947 10.6221 10.0025 10.4561 10.2737C10.2956 10.5448 10.2153 10.8437 10.2153 11.1702C10.2153 11.4911 10.2956 11.7872 10.4561 12.0583C10.6221 12.3295 10.8379 12.5453 11.1035 12.7058C11.3747 12.8663 11.6735 12.9465 12 12.9465ZM7.95752 7.66724C7.26579 7.66724 6.6377 7.50122 6.07324 7.16919C5.51432 6.83162 5.06885 6.38338 4.73682 5.82446C4.40479 5.26001 4.23877 4.63468 4.23877 3.94849C4.23877 3.26229 4.40479 2.63973 4.73682 2.08081C5.06885 1.52189 5.51432 1.07642 6.07324 0.744385C6.6377 0.40682 7.26579 0.238037 7.95752 0.238037C8.63818 0.238037 9.25798 0.40682 9.81689 0.744385C10.3813 1.07642 10.8296 1.52189 11.1616 2.08081C11.4992 2.63973 11.668 3.26229 11.668 3.94849C11.668 4.63468 11.4992 5.26001 11.1616 5.82446C10.8296 6.38338 10.3813 6.83162 9.81689 7.16919C9.25798 7.50122 8.63818 7.66724 7.95752 7.66724ZM7.95752 5.72485C8.27848 5.72485 8.57178 5.64738 8.8374 5.49243C9.10856 5.33195 9.32438 5.11613 9.48486 4.84497C9.64535 4.57381 9.72559 4.27498 9.72559 3.94849C9.72559 3.62199 9.64535 3.32593 9.48486 3.0603C9.32438 2.78914 9.10856 2.57332 8.8374 2.41284C8.57178 2.25236 8.27848 2.17212 7.95752 2.17212C7.63102 2.17212 7.33219 2.25236 7.06104 2.41284C6.79541 2.57332 6.57959 2.78914 6.41357 3.0603C6.25309 3.32593 6.17285 3.62199 6.17285 3.94849C6.17285 4.27498 6.25309 4.57381 6.41357 4.84497C6.57959 5.11613 6.79541 5.33195 7.06104 5.49243C7.33219 5.64738 7.63102 5.72485 7.95752 5.72485ZM16.0342 7.66724C15.348 7.66724 14.7227 7.50122 14.1582 7.16919C13.5993 6.83162 13.1538 6.38338 12.8218 5.82446C12.4897 5.26001 12.3237 4.63468 12.3237 3.94849C12.3237 3.26229 12.4897 2.63973 12.8218 2.08081C13.1538 1.52189 13.5993 1.07642 14.1582 0.744385C14.7227 0.40682 15.348 0.238037 16.0342 0.238037C16.7204 0.238037 17.3429 0.40682 17.9019 0.744385C18.4663 1.07642 18.9146 1.52189 19.2466 2.08081C19.5841 2.63973 19.7529 3.26229 19.7529 3.94849C19.7529 4.63468 19.5841 5.26001 19.2466 5.82446C18.9146 6.38338 18.4663 6.83162 17.9019 7.16919C17.3429 7.50122 16.7204 7.66724 16.0342 7.66724ZM16.0342 5.72485C16.3607 5.72485 16.6567 5.64738 16.9224 5.49243C17.1935 5.33195 17.4093 5.11613 17.5698 4.84497C17.7303 4.57381 17.8105 4.27498 17.8105 3.94849C17.8105 3.62199 17.7303 3.32593 17.5698 3.0603C17.4093 2.78914 17.1935 2.57332 16.9224 2.41284C16.6567 2.25236 16.3607 2.17212 16.0342 2.17212C15.7132 2.17212 15.4172 2.25236 15.146 2.41284C14.8804 2.57332 14.6646 2.78914 14.4985 3.0603C14.3381 3.32593 14.2578 3.62199 14.2578 3.94849C14.2578 4.27498 14.3381 4.57381 14.4985 4.84497C14.6646 5.11613 14.8804 5.33195 15.146 5.49243C15.4172 5.64738 15.7132 5.72485 16.0342 5.72485ZM3.93164 14.8806C3.23991 14.8806 2.61182 14.7146 2.04736 14.3826C1.48844 14.045 1.04297 13.5968 0.710938 13.0378C0.378906 12.4789 0.212891 11.8564 0.212891 11.1702C0.212891 10.484 0.378906 9.86141 0.710938 9.30249C1.04297 8.73804 1.48844 8.28979 2.04736 7.95776C2.61182 7.6202 3.23991 7.45142 3.93164 7.45142C4.6123 7.45142 5.2321 7.6202 5.79102 7.95776C6.35547 8.28979 6.80371 8.73804 7.13574 9.30249C7.47331 9.86141 7.64209 10.484 7.64209 11.1702C7.64209 11.8564 7.47331 12.4789 7.13574 13.0378C6.80371 13.5968 6.35547 14.045 5.79102 14.3826C5.2321 14.7146 4.6123 14.8806 3.93164 14.8806ZM3.93164 12.9465C4.2526 12.9465 4.5459 12.8663 4.81152 12.7058C5.08268 12.5453 5.2985 12.3295 5.45898 12.0583C5.61947 11.7872 5.69971 11.4911 5.69971 11.1702C5.69971 10.8437 5.61947 10.5448 5.45898 10.2737C5.2985 10.0025 5.08268 9.78947 4.81152 9.63452C4.5459 9.47404 4.2526 9.3938 3.93164 9.3938C3.60514 9.3938 3.30632 9.47404 3.03516 9.63452C2.764 9.78947 2.54818 10.0025 2.3877 10.2737C2.22721 10.5448 2.14697 10.8437 2.14697 11.1702C2.14697 11.4911 2.22721 11.7872 2.3877 12.0583C2.54818 12.3295 2.764 12.5453 3.03516 12.7058C3.30632 12.8663 3.60514 12.9465 3.93164 12.9465ZM20.0601 14.8806C19.3794 14.8806 18.7568 14.7146 18.1924 14.3826C17.6279 14.045 17.1797 13.5968 16.8477 13.0378C16.5156 12.4789 16.3496 11.8564 16.3496 11.1702C16.3496 10.484 16.5156 9.86141 16.8477 9.30249C17.1797 8.73804 17.6279 8.28979 18.1924 7.95776C18.7568 7.6202 19.3794 7.45142 20.0601 7.45142C20.7463 7.45142 21.3688 7.6202 21.9277 7.95776C22.4922 8.28979 22.9404 8.73804 23.2725 9.30249C23.61 9.86141 23.7788 10.484 23.7788 11.1702C23.7788 11.8564 23.61 12.4789 23.2725 13.0378C22.9404 13.5968 22.4922 14.045 21.9277 14.3826C21.3688 14.7146 20.7463 14.8806 20.0601 14.8806ZM20.0601 12.9465C20.3866 12.9465 20.6826 12.8663 20.9482 12.7058C21.2194 12.5453 21.4352 12.3295 21.5957 12.0583C21.7617 11.7872 21.8447 11.4911 21.8447 11.1702C21.8447 10.8437 21.7617 10.5448 21.5957 10.2737C21.4352 10.0025 21.2194 9.78947 20.9482 9.63452C20.6826 9.47404 20.3866 9.3938 20.0601 9.3938C19.7391 9.3938 19.443 9.47404 19.1719 9.63452C18.9062 9.78947 18.6904 10.0025 18.5244 10.2737C18.3639 10.5448 18.2837 10.8437 18.2837 11.1702C18.2837 11.4911 18.3639 11.7872 18.5244 12.0583C18.6904 12.3295 18.9062 12.5453 19.1719 12.7058C19.443 12.8663 19.7391 12.9465 20.0601 12.9465ZM7.95752 22.1023C7.26579 22.1023 6.6377 21.9363 6.07324 21.6042C5.51432 21.2722 5.06885 20.824 4.73682 20.2595C4.40479 19.6951 4.23877 19.0725 4.23877 18.3918C4.23877 17.7056 4.40479 17.0831 4.73682 16.5242C5.06885 15.9597 5.51432 15.5115 6.07324 15.1794C6.6377 14.8474 7.26579 14.6814 7.95752 14.6814C8.63818 14.6814 9.25798 14.8474 9.81689 15.1794C10.3813 15.5115 10.8296 15.9597 11.1616 16.5242C11.4992 17.0831 11.668 17.7056 11.668 18.3918C11.668 19.0725 11.4992 19.6951 11.1616 20.2595C10.8296 20.824 10.3813 21.2722 9.81689 21.6042C9.25798 21.9363 8.63818 22.1023 7.95752 22.1023ZM7.95752 20.1682C8.27848 20.1682 8.57178 20.088 8.8374 19.9275C9.10856 19.767 9.32438 19.5512 9.48486 19.28C9.64535 19.0144 9.72559 18.7183 9.72559 18.3918C9.72559 18.0653 9.64535 17.7665 9.48486 17.4954C9.32438 17.2297 9.10856 17.0167 8.8374 16.8562C8.57178 16.6957 8.27848 16.6155 7.95752 16.6155C7.63102 16.6155 7.33219 16.6957 7.06104 16.8562C6.79541 17.0167 6.57959 17.2297 6.41357 17.4954C6.25309 17.7665 6.17285 18.0653 6.17285 18.3918C6.17285 18.7183 6.25309 19.0144 6.41357 19.28C6.57959 19.5512 6.79541 19.767 7.06104 19.9275C7.33219 20.088 7.63102 20.1682 7.95752 20.1682ZM16.0342 22.1023C15.348 22.1023 14.7227 21.9363 14.1582 21.6042C13.5993 21.2722 13.1538 20.824 12.8218 20.2595C12.4897 19.6951 12.3237 19.0725 12.3237 18.3918C12.3237 17.7056 12.4897 17.0831 12.8218 16.5242C13.1538 15.9597 13.5993 15.5115 14.1582 15.1794C14.7227 14.8474 15.348 14.6814 16.0342 14.6814C16.7204 14.6814 17.3429 14.8474 17.9019 15.1794C18.4663 15.5115 18.9146 15.9597 19.2466 16.5242C19.5841 17.0831 19.7529 17.7056 19.7529 18.3918C19.7529 19.0725 19.5841 19.6951 19.2466 20.2595C18.9146 20.824 18.4663 21.2722 17.9019 21.6042C17.3429 21.9363 16.7204 22.1023 16.0342 22.1023ZM16.0342 20.1682C16.3607 20.1682 16.6567 20.088 16.9224 19.9275C17.1935 19.767 17.4093 19.5512 17.5698 19.28C17.7303 19.0144 17.8105 18.7183 17.8105 18.3918C17.8105 18.0653 17.7303 17.7665 17.5698 17.4954C17.4093 17.2297 17.1935 17.0167 16.9224 16.8562C16.6567 16.6957 16.3607 16.6155 16.0342 16.6155C15.7132 16.6155 15.4172 16.6957 15.146 16.8562C14.8804 17.0167 14.6646 17.2297 14.4985 17.4954C14.3381 17.7665 14.2578 18.0653 14.2578 18.3918C14.2578 18.7183 14.3381 19.0144 14.4985 19.28C14.6646 19.5512 14.8804 19.767 15.146 19.9275C15.4172 20.088 15.7132 20.1682 16.0342 20.1682Z" fill="#52AE5E"/>
</svg>
