<svg width="20" height="19" viewBox="0 0 20 19" fill="none" xmlns="http://www.w3.org/2000/svg">
<path d="M15.8469 4.04641C15.3642 2.89392 14.5517 1.90979 13.5114 1.21765C12.4711 0.525515 11.2495 0.15625 10 0.15625C8.75051 0.15625 7.52889 0.525515 6.48861 1.21765C5.44834 1.90979 4.63582 2.89392 4.15312 4.04641C3.1107 4.52287 2.22713 5.2888 1.60755 6.25305C0.987983 7.21731 0.658509 8.33927 0.658345 9.48542C0.650004 12.6716 3.32739 15.424 6.50856 15.5075C7.48704 15.5311 8.45649 15.3155 9.33274 14.8794V18.1765C9.33274 18.3535 9.40304 18.5232 9.52817 18.6483C9.65331 18.7735 9.82303 18.8438 10 18.8438C10.177 18.8438 10.3467 18.7735 10.4718 18.6483C10.597 18.5232 10.6673 18.3535 10.6673 18.1765V14.8794C11.4968 15.2913 12.4102 15.5062 13.3363 15.5075H13.4881C16.6726 15.424 19.3508 12.6716 19.3417 9.48542C19.3415 8.33927 19.012 7.21731 18.3924 6.25305C17.7729 5.2888 16.8893 4.52287 15.8469 4.04641ZM13.4572 14.1729C12.4622 14.1988 11.4848 13.9067 10.6673 13.3389V9.91914L14.3022 8.10252C14.3806 8.06331 14.4505 8.00903 14.508 7.94279C14.5654 7.87655 14.6093 7.79965 14.637 7.71647C14.6647 7.63328 14.6758 7.54545 14.6696 7.45799C14.6634 7.37053 14.64 7.28515 14.6008 7.20672C14.5616 7.1283 14.5073 7.05836 14.441 7.00092C14.3748 6.94347 14.2979 6.89963 14.2147 6.8719C14.1315 6.84417 14.0437 6.8331 13.9562 6.83931C13.8688 6.84553 13.7834 6.86891 13.705 6.90812L10.6673 8.42281V6.1658C10.6673 5.98883 10.597 5.81911 10.4718 5.69397C10.3467 5.56884 10.177 5.49854 10 5.49854C9.82303 5.49854 9.65331 5.56884 9.52817 5.69397C9.40304 5.81911 9.33274 5.98883 9.33274 6.1658V10.4246L6.29503 8.9049C6.13665 8.82571 5.95329 8.81268 5.78529 8.86868C5.6173 8.92467 5.47843 9.04512 5.39923 9.2035C5.32004 9.36189 5.30701 9.54525 5.36301 9.71324C5.41901 9.88124 5.53945 10.0201 5.69783 10.0993L9.33274 11.9159V13.3338C8.51538 13.9021 7.53787 14.1943 6.54275 14.1679C4.06972 14.1087 1.98619 11.9643 1.99287 9.48876C1.99223 8.55774 2.27099 7.64796 2.79307 6.87711C3.31515 6.10625 4.05653 5.5098 4.92131 5.16491C5.00806 5.13007 5.08652 5.07739 5.15161 5.01029C5.2167 4.94319 5.26696 4.86316 5.29914 4.77539C5.65111 3.81153 6.29086 2.97915 7.13171 2.39103C7.97256 1.80292 8.97388 1.48749 10 1.48749C11.0261 1.48749 12.0274 1.80292 12.8683 2.39103C13.7091 2.97915 14.3489 3.81153 14.7009 4.77539C14.733 4.86316 14.7833 4.94319 14.8484 5.01029C14.9135 5.07739 14.9919 5.13007 15.0787 5.16491C15.9433 5.50999 16.6846 6.10649 17.2066 6.8773C17.7287 7.64811 18.0075 8.5578 18.0071 9.48876C18.0138 11.9643 15.9303 14.1087 13.4572 14.1729Z" fill="#E8FE41"/>
</svg>
