<svg width="24" height="25" viewBox="0 0 24 25" fill="none" xmlns="http://www.w3.org/2000/svg">
<path d="M19.5107 5.15781C18.8906 3.67736 17.8469 2.41318 16.5106 1.52408C15.1743 0.63499 13.605 0.160645 12 0.160645C10.3949 0.160645 8.82569 0.63499 7.48939 1.52408C6.15309 2.41318 5.10935 3.67736 4.4893 5.15781C3.15024 5.76985 2.01523 6.75374 1.21935 7.99239C0.423468 9.23104 0.000236519 10.6723 2.49661e-05 12.1446C-0.0106893 16.2374 3.42859 19.7731 7.51501 19.8803C8.77193 19.9106 10.0173 19.6337 11.1429 19.0735V23.3088C11.1429 23.5362 11.2332 23.7542 11.3939 23.9149C11.5547 24.0757 11.7727 24.166 12 24.166C12.2273 24.166 12.4453 24.0757 12.6061 23.9149C12.7668 23.7542 12.8571 23.5362 12.8571 23.3088V19.0735C13.9227 19.6026 15.096 19.8787 16.2857 19.8803H16.4807C20.5714 19.7731 24.0118 16.2374 24 12.1446C23.9998 10.6723 23.5765 9.23104 22.7806 7.99239C21.9848 6.75374 20.8498 5.76985 19.5107 5.15781ZM16.4411 18.166C15.1628 18.1993 13.9073 17.824 12.8571 17.0946V12.7017L17.5264 10.3682C17.6272 10.3178 17.717 10.2481 17.7908 10.163C17.8646 10.0779 17.9209 9.9791 17.9565 9.87224C17.9921 9.76539 18.0064 9.65257 17.9984 9.54021C17.9904 9.42787 17.9604 9.31819 17.91 9.21745C17.8596 9.1167 17.7899 9.02687 17.7048 8.95307C17.6197 8.87927 17.5209 8.82296 17.4141 8.78734C17.3072 8.75172 17.1944 8.7375 17.082 8.74548C16.9697 8.75347 16.86 8.7835 16.7593 8.83387L12.8571 10.7796V7.88031C12.8571 7.65298 12.7668 7.43496 12.6061 7.27422C12.4453 7.11347 12.2273 7.02316 12 7.02316C11.7727 7.02316 11.5547 7.11347 11.3939 7.27422C11.2332 7.43496 11.1429 7.65298 11.1429 7.88031V13.351L7.24072 11.3989C7.03726 11.2971 6.80173 11.2804 6.58593 11.3523C6.37013 11.4243 6.19174 11.579 6.09001 11.7824C5.98828 11.9859 5.97154 12.2214 6.04348 12.4372C6.11541 12.653 6.27012 12.8314 6.47358 12.9332L11.1429 15.2667V17.0881C10.0929 17.8181 8.83723 18.1935 7.55894 18.1596C4.38216 18.0835 1.70574 15.3289 1.71431 12.1489C1.71349 10.9529 2.07157 9.78424 2.74222 8.79403C3.41287 7.80382 4.36522 7.03763 5.47608 6.59459C5.58752 6.54985 5.68831 6.48218 5.77192 6.39599C5.85554 6.30979 5.9201 6.20699 5.96144 6.09424C6.41356 4.85609 7.23536 3.78684 8.31549 3.03137C9.39563 2.2759 10.6819 1.87071 12 1.87071C13.3181 1.87071 14.6044 2.2759 15.6845 3.03137C16.7646 3.78684 17.5864 4.85609 18.0386 6.09424C18.0799 6.20699 18.1445 6.30979 18.2281 6.39599C18.3117 6.48218 18.4125 6.54985 18.5239 6.59459C19.6346 7.03788 20.5868 7.80412 21.2574 8.79428C21.928 9.78444 22.2862 10.953 22.2857 12.1489C22.2943 15.3289 19.6178 18.0835 16.4411 18.166Z" fill="#52AE5E"/>
</svg>
